<svg xmlns="http://www.w3.org/2000/svg" width="22" height="22" viewBox="0 0 22 22" fill="none">
<path d="M13.53 8.47L8.47 13.53M13.53 8.47C12.88 7.82 11.99 7.42 11 7.42C9.02 7.42 7.42 9.02 7.42 11C7.42 11.99 7.82 12.88 8.47 13.53M13.53 8.47L21 1M8.47 13.53L1 21M16.82 4.77C15.07 3.45 13.07 2.73 11 2.73C7.47 2.73 4.18 4.81 1.89 8.41C0.99 9.82 0.99 12.19 1.89 13.6C2.68 14.84 3.6 15.91 4.6 16.77M7.42 18.53C8.56 19.01 9.77 19.27 11 19.27C14.53 19.27 17.82 17.19 20.11 13.59C21.01 12.18 21.01 9.81 20.11 8.4C19.78 7.88 19.42 7.39 19.05 6.93M14.51 11.7C14.25 13.11 13.1 14.26 11.69 14.52" stroke="currentColor" stroke-width="1.5" stroke-linecap="round" stroke-linejoin="round"/>
</svg>